<svg width="0" height="0" class="hidden">
  <symbol fill="none" xmlns="http://www.w3.org/2000/svg" viewBox="0 0 20 20" id="arrow">
    <path fill-rule="evenodd" clip-rule="evenodd" d="M3 10v1h11v3l4-3.5L14 7v3H3z" fill="#fff"></path>
  </symbol>
  <symbol xmlns="http://www.w3.org/2000/svg" viewBox="0 0 15 15" id="comment">
    <path fill-rule="evenodd" clip-rule="evenodd" d="M11.135 12v3L8.36 12H2.25a1.5 1.5 0 01-1.5-1.5V3a1.5 1.5 0 011.5-1.5h10.5a1.5 1.5 0 011.5 1.5v7.5a1.5 1.5 0 01-1.5 1.5h-1.615z"></path>
  </symbol>
  <symbol fill="none" xmlns="http://www.w3.org/2000/svg" viewBox="0 0 20 20" id="download">
    <path fill-rule="evenodd" clip-rule="evenodd" d="M18 13.426c0-.237.263-.426.5-.426s.5.189.5.426v4.134a.44.44 0 01-.432.44H2.426A.435.435 0 012 17.56v-4.134c0-.237.263-.426.5-.426s.5.189.5.426V17h15v-3.574zM11 1v10h3l-3.5 4L7 11h3V1h1z" fill="#fff"></path>
  </symbol>
  <symbol fill="none" xmlns="http://www.w3.org/2000/svg" viewBox="0 0 50 50" id="fb">
    <path fill-rule="evenodd" clip-rule="evenodd" d="M25 50c13.807 0 25-11.193 25-25S38.807 0 25 0 0 11.193 0 25s11.193 25 25 25z" fill="#4267B2"></path>
    <path fill-rule="evenodd" clip-rule="evenodd" d="M29.623 16.004L27.225 16c-2.695 0-4.436 1.739-4.436 4.43v2.042h-2.412a.372.372 0 00-.377.367v2.96c0 .203.169.367.377.367h2.412v7.467c0 .203.168.367.377.367h3.146a.372.372 0 00.378-.367v-7.467h2.82a.372.372 0 00.377-.367v-2.96c0-.097-.04-.19-.11-.26a.383.383 0 00-.267-.107h-2.82v-1.731c0-.832.203-1.255 1.317-1.255h1.616a.372.372 0 00.377-.367V16.37a.372.372 0 00-.377-.367z" fill="#fff"></path>
  </symbol>
  <symbol fill="none" xmlns="http://www.w3.org/2000/svg" viewBox="0 0 80 80" id="file">
    <path fill-rule="evenodd" clip-rule="evenodd" d="M52 4l16 16v52a4 4 0 01-4 4H16a4 4 0 01-4-4V8a4 4 0 014-4h36zm-4 20V8H16v64h48V24H48z" fill="#96E2E3" opacity=".5"></path>
  </symbol>
  <symbol xmlns="http://www.w3.org/2000/svg" viewBox="0 0 15 15" id="heart">
    <path fill-rule="evenodd" clip-rule="evenodd" d="M12.84 2.96c-.67-.748-1.56-1.16-2.505-1.16-.947 0-1.74.412-2.41 1.16l-.425.68-.425-.68c-.669-.748-1.463-1.16-2.41-1.16-.945 0-1.835.412-2.504 1.16C.78 4.506.78 7.02 2.16 8.564l4.949 4.757a.523.523 0 00.393.179c.14 0 .28-.06.387-.18l4.95-4.756c1.38-1.544 1.38-4.058 0-5.604z" ></path>
  </symbol>
  <symbol viewBox="0 0 0 0" id="sprite"></symbol>
  <symbol fill="none" xmlns="http://www.w3.org/2000/svg" viewBox="0 0 50 50" id="twitter">
    <path fill-rule="evenodd" clip-rule="evenodd" d="M25 50c13.807 0 25-11.193 25-25S38.807 0 25 0 0 11.193 0 25s11.193 25 25 25z" fill="#1DA1F2"></path>
    <path fill-rule="evenodd" clip-rule="evenodd" d="M33.979 19.363a.088.088 0 00-.105-.024 7.158 7.158 0 01-1.687.516 3.777 3.777 0 001.317-1.867.09.09 0 00-.03-.098.089.089 0 00-.101-.008 7.177 7.177 0 01-2.245.875 3.745 3.745 0 00-2.7-1.157c-2.066 0-3.746 1.696-3.746 3.78 0 .253.024.503.072.745A10.298 10.298 0 0117.4 18.31a.09.09 0 00-.147.012 3.806 3.806 0 00-.506 1.9 3.79 3.79 0 001.41 2.958 3.556 3.556 0 01-1.307-.426.088.088 0 00-.088 0 .09.09 0 00-.045.077v.048a3.79 3.79 0 002.633 3.612 3.57 3.57 0 01-1.245-.018.09.09 0 00-.102.115 3.752 3.752 0 003.251 2.614 7.155 7.155 0 01-4.291 1.412c-.288 0-.578-.017-.862-.051a.09.09 0 00-.095.059.09.09 0 00.036.106 10.38 10.38 0 005.653 1.673c6.568 0 10.493-5.385 10.493-10.591 0-.145-.003-.29-.009-.433a7.51 7.51 0 001.807-1.905.091.091 0 00-.006-.108z" fill="#fff"></path>
  </symbol>
  <symbol fill="none" xmlns="http://www.w3.org/2000/svg" viewBox="0 0 50 50" id="youtube">
    <path fill-rule="evenodd" clip-rule="evenodd" d="M25 50c13.807 0 25-11.193 25-25S38.807 0 25 0 0 11.193 0 25s11.193 25 25 25z" fill="red"></path>
    <path fill-rule="evenodd" clip-rule="evenodd" d="M25 17.8c-2.898 0-6.66.73-6.66.73l-.009.01A2.77 2.77 0 0016 21.277v7.445a2.778 2.778 0 002.338 2.743l.003.004s3.761.731 6.659.731c2.898 0 6.66-.73 6.66-.73A2.78 2.78 0 0034 28.722v-7.446a2.778 2.778 0 00-2.338-2.744C31.66 18.53 27.898 17.8 25 17.8zm-1.8 4.05L28.6 25l-5.4 3.15v-6.3z" fill="#fff"></path>
  </symbol>
  <symbol  xmlns="http://www.w3.org/2000/svg" viewBox="0 0 20 20" id="bookmark">
    <path fill-rule="evenodd" clip-rule="evenodd" d="M5 1h10a2 2 0 012 2v16l-6.905-5L3 19V3a2 2 0 012-2z" ></path>
  </symbol>
   <symbol fill="none" xmlns="http://www.w3.org/2000/svg" viewBox="0 0 21 20" id="images">
    <path fill-rule="evenodd" clip-rule="evenodd" d="M3.5 6V4a1 1 0 011-1h14a1 1 0 011 1v10a1 1 0 01-1 1h-2v2a1 1 0 01-1 1h-14a1 1 0 01-1-1V7a1 1 0 011-1h2zm12 9h-11a1 1 0 01-1-1V7h-2v10h14v-2zM4.5 4v10h14V4h-14zm14 10h-14v-1l3-3 3 2 4-4 4 5v1zM10 9a1.5 1.5 0 110-3 1.5 1.5 0 010 3z" fill="#fff"></path>
  </symbol>
  <symbol fill="none" xmlns="http://www.w3.org/2000/svg" viewBox="0 0 40 40" id="footer-logo">
    <path fill-rule="evenodd" clip-rule="evenodd" d="M20 40c11.046 0 20-8.954 20-20S31.046 0 20 0 0 8.954 0 20s8.954 20 20 20z" fill="#4592FF"></path>
    <mask id="a" maskUnits="userSpaceOnUse" x="0" y="0" width="40" height="40">
      <path fill-rule="evenodd" clip-rule="evenodd" d="M20 40c11.046 0 20-8.954 20-20S31.046 0 20 0 0 8.954 0 20s8.954 20 20 20z" fill="#fff"></path>
    </mask>
    <g mask="url(#a)" fill="#fff">
      <path d="M1.926 27.131c.643 0 1.217-.106 1.72-.32a3.52 3.52 0 001.287-.899c.347-.385.61-.853.792-1.403.19-.55.285-1.166.285-1.847V12h3.33v10.662c0 1.059-.174 2.04-.52 2.943a6.633 6.633 0 01-1.473 2.327c-.636.648-1.411 1.157-2.327 1.526-.916.361-1.947.542-3.094.542-1.155 0-2.19-.18-3.107-.542a6.87 6.87 0 01-2.339-1.526 6.876 6.876 0 01-1.473-2.327c-.338-.903-.507-1.884-.507-2.943V12h3.33v10.65c0 .681.09 1.297.271 1.847.19.55.458 1.021.805 1.415.355.386.784.686 1.287.9.512.213 1.09.32 1.733.32zM28.18 12v17.803h-1.707c-.264 0-.487-.041-.669-.123a1.652 1.652 0 01-.507-.443l-9.344-11.869c.05.542.074 1.042.074 1.502v10.933h-2.933V12h1.745c.14 0 .26.008.359.025a.663.663 0 01.272.073c.082.033.16.087.235.16.074.066.157.157.248.271l9.38 11.918c-.024-.287-.044-.57-.061-.85a13.614 13.614 0 01-.025-.775V12h2.933zm19.32 0l-7.228 17.803h-3.007L30.037 12h2.673c.29 0 .524.07.706.21.181.139.318.32.408.541l4.22 10.86c.14.352.273.742.397 1.169.132.418.255.857.37 1.317.1-.46.207-.899.323-1.317.115-.427.243-.817.383-1.17l4.196-10.859c.066-.189.194-.361.383-.517.199-.156.438-.234.718-.234H47.5z"></path>
    </g>
  </symbol>
  <symbol fill="none" xmlns="http://www.w3.org/2000/svg" viewBox="0 0 40 40" id="inst">
    <path fill-rule="evenodd" clip-rule="evenodd" d="M20 40c11.046 0 20-8.954 20-20S31.046 0 20 0 0 8.954 0 20s8.954 20 20 20z" fill="#262626"></path>
    <path fill-rule="evenodd" clip-rule="evenodd" d="M20 11.5c2.308 0 2.598.01 3.505.051.904.041 1.522.185 2.063.395a4.165 4.165 0 011.505.98c.473.473.764.947.98 1.506.21.54.355 1.159.396 2.063.041.907.051 1.197.051 3.505s-.01 2.598-.051 3.505c-.041.904-.185 1.522-.395 2.063a4.167 4.167 0 01-.98 1.505 4.167 4.167 0 01-1.506.98c-.54.21-1.159.355-2.064.396-.906.041-1.196.051-3.504.051s-2.598-.01-3.505-.051c-.904-.041-1.522-.185-2.063-.395a4.167 4.167 0 01-1.505-.98 4.165 4.165 0 01-.98-1.506c-.21-.54-.355-1.159-.396-2.064-.041-.906-.051-1.196-.051-3.504s.01-2.598.051-3.505c.041-.904.185-1.522.395-2.063a4.165 4.165 0 01.98-1.505 4.165 4.165 0 011.506-.98c.54-.21 1.159-.355 2.063-.396.907-.041 1.197-.051 3.505-.051zm-.003 11.33a2.833 2.833 0 100-5.665 2.833 2.833 0 000 5.665zm0-7.196a4.363 4.363 0 110 8.727 4.363 4.363 0 010-8.727zm5.859-.262a1.039 1.039 0 11-2.078 0 1.039 1.039 0 012.078 0z" fill="#fff"></path>
  </symbol>
</svg>